<?xml version="1.0" encoding="utf-8"?>
<svg version="1.2" baseProfile="tiny-ps" xmlns="http://www.w3.org/2000/svg" xmlns:xlink="http://www.w3.org/1999/xlink"
	 x="0px" y="0px" viewBox="0 0 341.33 348" overflow="visible" xml:space="preserve">
<rect x="-111.02" y="-727.37" fill="#C55C01" width="566.93" height="566.93"/>
<g>
	<path d="M258.22-604.94c-81.91-60.76-157.44-17.79-157.44-17.79
		C-7.31-562.64,24.58-456.9,24.58-456.9l49.01-22.83l1.01,68.48l109.1-47.33c0,0-2.01,136.96,0.34,137.3
		c114.47-11.08,136.62-117.49,136.62-117.49C344.04-547.31,258.22-604.94,258.22-604.94z M141.4-628.32
		c67.36-13.09,112.82,29.26,112.82,29.26c-53.37-33.23-103.7-23.47-129.94-14.94c-75.92,25.51-95.33,100.71-95.33,100.71
		C45.96-614,141.4-628.32,141.4-628.32z M130.16-469.82l-0.5-28.53l-44.48-24.34l-28.33,13.46c0,0,41.79-128.9,177.74-69.99
		c0,0,103.72,53.87,35.25,168.17c0,0-17.15,26.66-35.78,33.71l-0.34-90.64l-48.17-26.69L130.16-469.82z M233.74-363.83l-0.03-5.34
		c0,0,48.11-27.3,60.65-78.33C294.36-447.5,290.59-397.62,233.74-363.83z"/>
	<path d="M128.98-328c0.45,0,0.9-73.63,0.9-73.63l-67.58,30.21
		C62.29-371.41,78.85-345.9,128.98-328z"/>
	<path d="M49.76-387.52v-57.07L27.83-434.3C41.93-392.22,49.76-387.52,49.76-387.52z"/>
</g>
<g>
	<path fill="#C55C01" d="M258.22,49.77c-81.91-60.76-157.44-17.79-157.44-17.79c-108.09,60.09-76.2,165.83-76.2,165.83l49.01-22.83
		l1.01,68.48l109.1-47.33c0,0-2.01,136.96,0.34,137.3c114.47-11.08,136.62-117.49,136.62-117.49
		C344.04,107.4,258.22,49.77,258.22,49.77z M141.4,26.38c67.36-13.09,112.82,29.26,112.82,29.26
		c-53.37-33.23-103.7-23.47-129.94-14.94C48.36,66.22,28.95,141.41,28.95,141.41C45.96,40.71,141.4,26.38,141.4,26.38z
		 M130.16,184.88l-0.5-28.53l-44.48-24.34l-28.33,13.46c0,0,41.79-128.9,177.74-69.99c0,0,103.72,53.87,35.25,168.17
		c0,0-17.15,26.66-35.78,33.71l-0.34-90.64l-48.17-26.69L130.16,184.88z M233.74,290.88l-0.03-5.34c0,0,48.11-27.3,60.65-78.33
		C294.36,207.21,290.59,257.08,233.74,290.88z"/>
	<path fill="#C55C01" d="M128.98,326.71c0.45,0,0.9-73.63,0.9-73.63L62.29,283.3C62.29,283.3,78.85,308.81,128.98,326.71z"/>
	<path fill="#C55C01" d="M49.76,267.18v-57.07l-21.93,10.29C41.93,262.48,49.76,267.18,49.76,267.18z"/>
</g>
<polyline fill="none" stroke="#FFFFFF" stroke-miterlimit="10" points="-34.22,-24.44 -34.22,370.22 395.11,370.22 
	395.11,-24.44 "/>
<line fill="none" stroke="#C55C01" stroke-miterlimit="10" x1="395.11" y1="-24.44" x2="-34.22" y2="-24.44"/>
</svg>
