<?xml version="1.0" encoding="UTF-8"?>
<svg xmlns="http://www.w3.org/2000/svg"
     version="1.2"
     baseProfile="tiny-ps"
     viewBox="0 0 341.33 348">
  <rect width="341.33" height="348" fill="#C55C01"/>
  <g>
    <path fill="#FFFFFF" d="M258.22,49.77c-81.91-60.76-157.44-17.79-157.44-17.79c-108.09,60.09-76.2,165.83-76.2,165.83l49.01-22.83
      l1.01,68.48l109.1-47.33c0,0-2.01,136.96,0.34,137.3c114.47-11.08,136.62-117.49,136.62-117.49
      C344.04,107.4,258.22,49.77,258.22,49.77z M141.4,26.38c67.36-13.09,112.82,29.26,112.82,29.26
      c-53.37-33.23-103.7-23.47-129.94-14.94C48.36,66.22,28.95,141.41,28.95,141.41C45.96,40.71,141.4,26.38,141.4,26.38z
       M130.16,184.88l-0.5-28.53l-44.48-24.34l-28.33,13.46c0,0,41.79-128.9,177.74-69.99c0,0,103.72,53.87,35.25,168.17
      c0,0-17.15,26.66-35.78,33.71l-0.34-90.64l-48.17-26.69L130.16,184.88z M233.74,290.88l-0.03-5.34c0,0,48.11-27.3,60.65-78.33
      C294.36,207.21,290.59,257.08,233.74,290.88z"/>
    <path fill="#FFFFFF" d="M128.98,326.71c0.45,0,0.9-73.63,0.9-73.63L62.29,283.3C62.29,283.3,78.85,308.81,128.98,326.71z"/>
    <path fill="#FFFFFF" d="M49.76,267.18v-57.07l-21.93,10.29C41.93,262.48,49.76,267.18,49.76,267.18z"/>
  </g>
</svg>